HIERARCHY
ROOT SpineBase
{
  OFFSET 0.000000 0.000000 0.000000
  CHANNELS 6 Xposition Yposition Zposition Zrotation Xrotation Yrotation
  JOINT SpineMid
  {
    OFFSET -0.000000 26.246365 0.000000
    CHANNELS 3 Zrotation Xrotation Yrotation
    JOINT SpineShoulder
    {
      OFFSET -0.047766 19.560502 -0.648229
      CHANNELS 3 Zrotation Xrotation Yrotation
      JOINT Neck
      {
        OFFSET -0.031527 6.502504 -0.478583
        CHANNELS 3 Zrotation Xrotation Yrotation
        JOINT Head
        {
          OFFSET -2.487458 11.810460 0.565256
          CHANNELS 3 Zrotation Xrotation Yrotation
          End Site
          {
            OFFSET 0 0 0
          }
        }
      }
      JOINT ShoulderLeft
      {
        OFFSET -12.464123 -3.540968 6.119686
        CHANNELS 3 Zrotation Xrotation Yrotation
        JOINT ElbowLeft
        {
          OFFSET -1.794650 -25.209508 2.926136
          CHANNELS 3 Zrotation Xrotation Yrotation
          JOINT WristLeft
          {
            OFFSET -4.010145 -17.235224 -6.403620
            CHANNELS 3 Zrotation Xrotation Yrotation
            JOINT HandLeft
            {
              OFFSET -1.140759 -6.813862 -3.163930
              CHANNELS 3 Zrotation Xrotation Yrotation
              JOINT HandTipLeft
              {
                OFFSET -0.442103 -4.576524 -2.086705
                CHANNELS 3 Zrotation Xrotation Yrotation
                End Site
                {
                  OFFSET 0 0 0
                }
              }
              JOINT ThumbLeft
              {
                OFFSET 1.710392 -1.330061 -2.248786
                CHANNELS 3 Zrotation Xrotation Yrotation
                End Site
                {
                  OFFSET 0 0 0
                }
              }
            }
          }
        }
      }
      JOINT ShoulderRight
      {
        OFFSET 11.750577 -2.249507 -5.173227
        CHANNELS 3 Zrotation Xrotation Yrotation
        JOINT ElbowRight
        {
          OFFSET 4.807993 -22.429796 -2.261674
          CHANNELS 3 Zrotation Xrotation Yrotation
          JOINT WristRight
          {
            OFFSET -0.085124 -20.057093 -7.900379
            CHANNELS 3 Zrotation Xrotation Yrotation
            JOINT HandRight
            {
              OFFSET -1.282814 -6.658474 -1.618526
              CHANNELS 3 Zrotation Xrotation Yrotation
              JOINT HandTipRight
              {
                OFFSET -0.017138 -5.763608 -2.719462
                CHANNELS 3 Zrotation Xrotation Yrotation
                End Site
                {
                  OFFSET 0 0 0
                }
              }
              JOINT ThumbRight
              {
                OFFSET -2.773525 1.951915 0.602885
                CHANNELS 3 Zrotation Xrotation Yrotation
                End Site
                {
                  OFFSET 0 0 0
                }
              }
            }
          }
        }
      }
    }
  }
  JOINT HipLeft
  {
    OFFSET -5.467702 0.271124 -1.196002
    CHANNELS 3 Zrotation Xrotation Yrotation
    JOINT KneeLeft
    {
      OFFSET 4.133806 -33.458026 3.444982
      CHANNELS 3 Zrotation Xrotation Yrotation
      JOINT AnkleLeft
      {
        OFFSET 6.624900 -32.536568 6.040005
        CHANNELS 3 Zrotation Xrotation Yrotation
        JOINT FootLeft
        {
          OFFSET -3.587153 -2.954743 -9.956482
          CHANNELS 3 Zrotation Xrotation Yrotation
          End Site
          {
            OFFSET 0 0 0
          }
        }
      }
    }
  }
  JOINT HipRight
  {
    OFFSET 4.961677 1.241037 -4.807858
    CHANNELS 3 Zrotation Xrotation Yrotation
    JOINT KneeRight
    {
      OFFSET 5.730037 -31.199894 -0.474672
      CHANNELS 3 Zrotation Xrotation Yrotation
      JOINT AnkleRight
      {
        OFFSET 4.777693 -32.021815 5.480497
        CHANNELS 3 Zrotation Xrotation Yrotation
        JOINT FootRight
        {
          OFFSET -4.372767 -6.142242 1.670362
          CHANNELS 3 Zrotation Xrotation Yrotation
          End Site
          {
            OFFSET 0 0 0
          }
        }
      }
    }
  }
}
MOTION
Frames: 5
Frame Time: 0.033333
24.665666 98.429775 363.453590 3.219875 -4.310234 14.701904 -0.035044 0.377443 -14.493214 0.072776 0.082849 0.115887 0.938937 11.489892 0.748807 0.000000 0.000000 0.000000 -109.622411 -2.054359 -13.595853 -87.325658 32.151834 167.826345 28.113331 25.736120 34.648035 27.291119 0.737212 44.527854 0.000000 0.000000 0.000000 0.000000 0.000000 0.000000 134.628672 65.740097 -98.497469 158.802064 69.655330 62.738264 -24.788464 -6.074944 -97.507607 0.976229 -2.455229 51.553671 0.000000 0.000000 0.000000 0.000000 0.000000 0.000000 -4.978921 12.738852 -13.680275 0.672900 -1.383547 -0.008908 7.257372 -12.773807 -2.032301 0.000000 0.000000 0.000000 -1.401140 8.454416 -13.915576 -0.930750 2.843119 0.095738 31.460938 45.341921 -58.825841 0.000000 0.000000 0.000000
24.919696 93.553204 363.579726 3.170523 -4.368830 14.462035 -0.024763 0.313612 -14.253846 0.046536 0.086506 0.113586 1.762017 13.198664 0.871150 0.000000 0.000000 0.000000 -99.054743 0.691223 -8.675863 -102.338574 40.480198 174.651116 32.655430 25.932095 32.566117 25.192976 -4.309816 44.172032 0.000000 0.000000 0.000000 0.000000 0.000000 0.000000 108.704789 70.299088 -76.011676 172.053406 54.913374 39.275929 -18.797022 -12.755571 -90.029170 -6.491559 -15.221790 11.823971 0.000000 0.000000 0.000000 0.000000 0.000000 0.000000 -5.264535 13.861614 -13.288291 1.163680 -3.603972 -0.376534 8.033134 -13.415408 -1.899006 0.000000 0.000000 0.000000 -1.277353 9.814436 -13.451848 -0.644358 0.884059 -0.254468 32.044206 47.587922 -62.087632 0.000000 0.000000 0.000000
25.265553 87.582705 363.680492 3.527323 -4.233778 13.867475 -0.010551 0.222858 -13.636560 0.014568 0.060664 0.128824 -0.386605 13.702817 1.306501 0.000000 0.000000 0.000000 -86.729943 4.354615 -4.261263 -113.830195 49.363413 174.085355 36.969759 29.397048 31.844390 17.521425 -9.730046 38.836467 0.000000 0.000000 0.000000 0.000000 0.000000 0.000000 73.401356 69.907854 -44.857292 -178.116096 44.828044 33.694939 -15.034139 -13.113380 -82.205291 -6.589421 -17.937648 -3.340733 0.000000 0.000000 0.000000 0.000000 0.000000 0.000000 -6.317522 15.444756 -12.410422 2.441340 -7.022612 -0.758219 7.784970 -12.239677 -1.291533 0.000000 0.000000 0.000000 -2.045479 12.399542 -12.318628 0.711364 -3.191045 -0.820356 29.441428 46.769120 -57.739740 0.000000 0.000000 0.000000
25.778169 80.876803 364.495153 4.185613 -5.185889 14.520535 0.060327 0.214242 -14.213043 -0.017172 0.064126 0.154037 -2.488946 14.312760 1.512465 0.000000 0.000000 0.000000 -72.998972 8.987177 0.067561 -122.190803 57.215181 166.736910 38.016455 38.230014 29.644021 9.097990 -20.220366 37.843159 0.000000 0.000000 0.000000 0.000000 0.000000 0.000000 50.232919 64.541876 -25.636508 -169.487543 39.422396 39.669216 -16.456962 -8.012791 -76.637359 -6.406994 -22.909767 -27.610373 0.000000 0.000000 0.000000 0.000000 0.000000 0.000000 -5.749057 20.451935 -12.475793 1.770450 -12.572473 -1.930913 8.238307 -10.619855 0.076894 0.000000 0.000000 0.000000 -2.255718 17.790493 -12.131310 1.820359 -9.720976 -1.752344 26.930158 50.015056 -58.614262 0.000000 0.000000 0.000000
26.633552 73.729688 365.181822 5.452222 -6.078210 15.158018 -0.145207 -0.080819 -14.695743 -0.073304 -0.010279 0.198115 -4.640939 14.726176 1.581177 0.000000 0.000000 0.000000 -59.492470 14.966625 3.334582 -123.887792 61.810021 149.470691 58.313410 60.643900 36.701847 -16.957745 -28.000527 22.607311 0.000000 0.000000 0.000000 0.000000 0.000000 0.000000 34.069331 57.192630 -14.268744 -160.517033 38.018327 53.398965 -29.861624 -0.533150 -92.230156 2.507248 -18.128744 -14.754314 0.000000 0.000000 0.000000 0.000000 0.000000 0.000000 -7.012271 27.646816 -12.051098 3.692038 -22.274807 -3.074390 7.113971 -5.427310 1.198835 0.000000 0.000000 0.000000 -4.422230 25.267087 -11.137733 5.391867 -19.196366 -2.348720 24.361660 52.405635 -57.386589 0.000000 0.000000 0.000000
